<svg width="1056" height="822" viewBox="0 0 1056 822" fill="none" xmlns="http://www.w3.org/2000/svg">
<g clip-path="url(#clip0)">
<path d="M769.667 349.55H239.173C237.271 349.548 235.448 348.792 234.104 347.448C232.759 346.103 232.003 344.28 232.001 342.378V13.8083H776.839V342.378C776.837 344.28 776.081 346.103 774.736 347.448C773.392 348.792 771.569 349.548 769.667 349.55Z" fill="#E6E6E6"/>
<path d="M754.112 329.017H254.728C252.806 329.015 250.963 328.251 249.604 326.891C248.245 325.532 247.48 323.689 247.478 321.767V51.1779C247.48 49.2557 248.245 47.4129 249.604 46.0538C250.963 44.6946 252.806 43.9301 254.728 43.9279H754.112C756.034 43.93 757.877 44.6945 759.236 46.0537C760.595 47.4128 761.36 49.2557 761.362 51.1779V321.767C761.36 323.689 760.595 325.532 759.236 326.891C757.877 328.251 756.034 329.015 754.112 329.017V329.017Z" fill="white"/>
<path d="M776.607 23.9545H231.769V7.172C231.771 5.27051 232.527 3.44752 233.872 2.10297C235.216 0.758414 237.039 0.00211747 238.941 0H769.435C771.336 0.00211747 773.159 0.758414 774.504 2.10297C775.849 3.44752 776.605 5.27051 776.607 7.172L776.607 23.9545Z" fill="#48BB78"/>
<path d="M249.365 16.5207C251.73 16.5207 253.648 14.6029 253.648 12.2373C253.648 9.87161 251.73 7.95386 249.365 7.95386C246.999 7.95386 245.081 9.87161 245.081 12.2373C245.081 14.6029 246.999 16.5207 249.365 16.5207Z" fill="white"/>
<path d="M265.624 16.5207C267.989 16.5207 269.907 14.6029 269.907 12.2373C269.907 9.87161 267.989 7.95386 265.624 7.95386C263.258 7.95386 261.34 9.87161 261.34 12.2373C261.34 14.6029 263.258 16.5207 265.624 16.5207Z" fill="white"/>
<path d="M281.882 16.5207C284.248 16.5207 286.166 14.6029 286.166 12.2373C286.166 9.87161 284.248 7.95386 281.882 7.95386C279.517 7.95386 277.599 9.87161 277.599 12.2373C277.599 14.6029 279.517 16.5207 281.882 16.5207Z" fill="white"/>
<path d="M350.273 92.449H298.803V115.231H350.273V92.449Z" fill="#E6E6E6"/>
<path d="M453.212 139.7H401.742V162.481H453.212V139.7Z" fill="#E6E6E6"/>
<path d="M350.273 210.576H298.803V233.357H350.273V210.576Z" fill="#48BB78"/>
<path d="M453.212 257.826H401.742V280.608H453.212V257.826Z" fill="#48BB78"/>
<path d="M709.716 281.452H658.246V304.233H709.716V281.452Z" fill="#48BB78"/>
<path d="M658.246 186.95H606.776V209.732H658.246V186.95Z" fill="#E6E6E6"/>
<path d="M556.151 186.95H453.212V209.732H556.151V186.95Z" fill="#48BB78"/>
<path d="M556.151 67.9799H453.212V90.7615H556.151V67.9799Z" fill="#48BB78"/>
<path d="M247.334 43.5108V329.546H762.029V43.5107L247.334 43.5108ZM760.341 67.2066H710.728V45.1983H760.341V67.2066ZM454.224 233.076V211.068H555.138V233.076H454.224ZM555.138 234.763V256.772H454.224V234.763H555.138ZM555.138 139.981V161.989H454.224V139.981H555.138ZM454.224 138.294V116.285H555.138V138.294H454.224ZM454.224 185.685V163.676H555.138V185.685H454.224ZM555.138 187.372V209.381H454.224V187.372H555.138ZM452.537 161.989H402.924V139.981H452.537V161.989ZM452.537 163.676V185.685H402.924V163.676H452.537ZM452.537 187.372V209.381H402.924V187.372H452.537ZM452.537 211.068V233.076H402.924V211.068H452.537ZM556.826 211.068H606.439V233.076H556.826L556.826 211.068ZM556.826 209.381V187.372H606.439V209.381H556.826ZM556.826 185.685V163.676H606.439V185.685H556.826ZM556.826 161.989V139.981H606.439V161.989H556.826ZM556.826 138.294V116.285H606.439V138.294H556.826ZM556.826 114.598V92.5895H606.439V114.598H556.826ZM555.138 114.598H454.224V92.5895H555.138L555.138 114.598ZM452.537 114.598H402.924V92.5895H452.537V114.598ZM452.537 116.285V138.294H402.924V116.285H452.537ZM401.236 138.294H351.622V116.285H401.236L401.236 138.294ZM401.236 139.981V161.989H351.622V139.981H401.236ZM401.236 163.676V185.685H351.622V163.676H401.236ZM401.236 187.372V209.381H351.622V187.372H401.236ZM401.236 211.068V233.076H351.622V211.068H401.236ZM401.236 234.763V256.772H351.622V234.763H401.236ZM402.924 234.763H452.537V256.772H402.924V234.763ZM452.537 258.459V280.467H402.924V258.459H452.537ZM454.224 258.459H555.138V280.467H454.224V258.459ZM556.826 258.459H606.439V280.467H556.826L556.826 258.459ZM556.826 256.772V234.763H606.439V256.772H556.826ZM608.126 234.763H657.74V256.772H608.126L608.126 234.763ZM608.126 233.076V211.068H657.74V233.076H608.126ZM608.126 209.381V187.372H657.74V209.381H608.126ZM608.126 185.685V163.676H657.74V185.685H608.126ZM608.126 161.989V139.981H657.74V161.989H608.126ZM608.126 138.294V116.285H657.74V138.294H608.126ZM608.126 114.598V92.5895H657.74V114.598H608.126ZM608.126 90.9019V68.8941H657.74V90.9019H608.126ZM606.439 90.9019H556.826V68.8941H606.439L606.439 90.9019ZM555.138 90.9019H454.224V68.8941H555.138L555.138 90.9019ZM452.537 90.9019H402.924V68.8941H452.537V90.9019ZM401.236 90.9019H351.622V68.8941H401.236L401.236 90.9019ZM401.236 92.5895V114.598H351.622V92.5895H401.236ZM349.935 114.598H300.322V92.5895H349.935V114.598ZM349.935 116.285V138.294H300.322V116.285H349.935ZM349.935 139.981V161.989H300.322V139.981H349.935ZM349.935 163.676V185.685H300.322V163.676H349.935ZM349.935 187.372V209.381H300.322V187.372H349.935ZM349.935 211.068V233.076H300.322V211.068H349.935ZM349.935 234.763V256.772H300.322V234.763H349.935ZM349.935 258.459V280.467H300.322V258.459H349.935ZM351.622 258.459H401.236V280.467H351.622L351.622 258.459ZM401.236 282.155V304.163H351.622V282.155H401.236ZM402.924 282.155H452.537V304.163H402.924V282.155ZM454.224 282.155H555.138V304.163H454.224V282.155ZM556.826 282.155H606.439V304.163H556.826L556.826 282.155ZM608.126 282.155H657.74V304.163H608.126L608.126 282.155ZM608.126 280.467V258.459H657.74V280.467H608.126ZM659.428 258.459H709.041V280.467H659.428V258.459ZM659.428 256.772V234.763H709.041V256.772H659.428ZM659.428 233.076V211.068H709.041V233.076H659.428ZM659.428 209.381V187.372H709.041V209.381H659.428ZM659.428 185.685V163.676H709.041V185.685H659.428ZM659.428 161.989V139.981H709.041V161.989H659.428ZM659.428 138.294V116.285H709.041V138.294H659.428ZM659.428 114.598V92.5895H709.041V114.598H659.428ZM659.428 90.9019V68.8941H709.041V90.9019H659.428ZM659.428 67.2066V45.1983H709.041V67.2066L659.428 67.2066ZM657.74 67.2066H608.126V45.1983H657.74L657.74 67.2066ZM606.439 67.2066H556.826V45.1983H606.439L606.439 67.2066ZM555.138 67.2066H454.224V45.1983H555.138L555.138 67.2066ZM452.537 67.2066H402.924V45.1983H452.537V67.2066ZM401.236 67.2066H351.622V45.1983H401.236L401.236 67.2066ZM349.935 67.2066H300.322V45.1983H349.935V67.2066ZM349.935 68.8941V90.9019H300.322V68.8941H349.935ZM298.634 90.9019H249.021V68.8941H298.634L298.634 90.9019ZM298.634 92.5895V114.598H249.021V92.5895H298.634ZM298.634 116.285V138.294H249.021V116.285H298.634ZM298.634 139.981V161.989H249.021V139.981H298.634ZM298.634 163.676V185.685H249.021V163.676H298.634ZM298.634 187.372V209.381H249.021V187.372H298.634ZM298.634 211.068V233.076H249.021V211.068H298.634ZM298.634 234.763V256.772H249.021V234.763H298.634ZM298.634 258.459V280.467H249.021V258.459H298.634ZM298.634 282.155V304.163H249.021V282.155H298.634ZM300.322 282.155H349.935V304.163H300.322L300.322 282.155ZM349.935 305.851V327.859H300.322V305.851H349.935ZM351.622 305.851H401.236V327.859H351.622L351.622 305.851ZM402.924 305.851H452.537V327.859H402.924L402.924 305.851ZM454.224 305.851H555.138V327.859H454.224L454.224 305.851ZM556.826 305.851H606.439V327.859H556.826V305.851ZM608.126 305.851H657.74V327.859H608.126L608.126 305.851ZM659.428 305.851H709.041V327.859H659.428V305.851ZM659.428 304.163V282.155H709.041V304.163H659.428ZM710.728 282.155H760.341V304.163H710.728V282.155ZM710.728 280.467V258.459H760.341V280.467H710.728ZM710.728 256.772V234.763H760.341V256.772H710.728ZM710.728 233.076V211.068H760.341V233.076H710.728ZM710.728 209.381V187.372H760.341V209.381H710.728ZM710.728 185.685V163.676H760.341V185.685H710.728ZM710.728 161.989V139.981H760.341V161.989H710.728ZM710.728 138.294V116.285H760.341V138.294H710.728ZM710.728 114.598V92.5895H760.341V114.598H710.728ZM710.728 90.9019V68.8941H760.341V90.9019H710.728ZM298.634 45.1983V67.2066H249.021V45.1983H298.634ZM249.021 305.851H298.634V327.859H249.021V305.851ZM710.728 327.859V305.851H760.341V327.859H710.728Z" fill="#E6E6E6"/>
<path d="M107.226 198.492C107.226 198.492 81.1877 192.492 66.8667 203.492C52.5457 214.492 85.0934 239.492 85.0934 239.492L107.226 198.492Z" fill="#2F2E41"/>
<path d="M134.153 341.975C133.631 340.601 133.417 339.129 133.526 337.663C133.635 336.197 134.064 334.772 134.783 333.49C135.502 332.207 136.493 331.098 137.687 330.241C138.881 329.383 140.248 328.797 141.693 328.525L146.955 293.18L160.783 305.574L153.666 337.238C153.962 339.696 153.347 342.176 151.936 344.21C150.526 346.244 148.419 347.69 146.013 348.274C143.608 348.858 141.072 348.539 138.886 347.378C136.7 346.217 135.016 344.295 134.153 341.975H134.153Z" fill="#FFB8B8"/>
<path d="M79.648 525.464L91.881 524.652L94.571 477.082L76.517 478.28L79.648 525.464Z" fill="#FFB8B8"/>
<path d="M115.776 535.738H77.2455V520.851H100.889C104.838 520.851 108.624 522.419 111.416 525.211C114.208 528.003 115.776 531.79 115.776 535.738V535.738V535.738Z" fill="#2F2E41"/>
<path d="M100.789 508.53L112.29 512.775L134.139 470.433L117.164 464.168L100.789 508.53Z" fill="#FFB8B8"/>
<path d="M130.529 531.642L94.3825 518.3L99.5377 504.334L121.719 512.521C125.423 513.889 128.432 516.671 130.084 520.257C131.736 523.843 131.896 527.938 130.529 531.642V531.642L130.529 531.642Z" fill="#2F2E41"/>
<path d="M134.231 325.779C134.231 325.779 146.619 332.45 142.808 359.133L138.996 460.148L117.936 506.198L99.8298 501.433L111.359 463.96L96.112 398.205L94.112 517.633L76.9586 520.492L52.2755 321.968L83.7234 307.673L134.231 325.779Z" fill="#2F2E41"/>
<path d="M89.9502 187.156C103.515 187.156 114.511 176.159 114.511 162.594C114.511 149.03 103.515 138.033 89.9502 138.033C76.3856 138.033 65.3892 149.03 65.3892 162.594C65.3892 176.159 76.3856 187.156 89.9502 187.156Z" fill="#FFB8B8"/>
<path d="M104.212 193.793L91.8237 213.805L73.7173 195.699L39.8676 219.394C38.68 220.223 37.8086 221.43 37.3957 222.818C36.9828 224.207 37.0528 225.694 37.5943 227.037C42.8011 239.912 56.1349 277.97 52.2754 321.967C52.2754 321.967 78.0056 315.297 104.689 322.92C131.372 330.544 138.043 327.685 138.043 327.685C138.043 327.685 131.372 279.084 135.184 268.601C138.346 259.906 144.786 230.884 146.89 221.24C147.089 220.329 146.989 219.378 146.606 218.528C146.223 217.678 145.577 216.974 144.763 216.52L104.212 193.793Z" fill="#48BB78"/>
<path d="M143.782 216.635C144.829 216.486 145.896 216.723 146.782 217.302C147.667 217.882 148.312 218.764 148.594 219.784L164.726 278.037L160.914 313.297L142.808 310.438L144.713 285.661L131.372 254.213L140.179 219.865C140.393 219.031 140.849 218.279 141.491 217.704C142.132 217.129 142.929 216.757 143.782 216.635V216.635Z" fill="#48BB78"/>
<path d="M70.9579 128.117C72.5957 125.337 74.9699 123.063 77.8183 121.548C80.6667 120.032 83.8785 119.334 87.0991 119.529C90.4679 119.951 93.7554 120.871 96.854 122.259L112.91 128.522C117.065 130.143 121.615 132.128 123.418 136.207C125.091 139.993 123.843 144.365 122.579 148.307L116.572 167.042C115.906 162.802 114.765 158.65 113.168 154.666C111.423 150.749 108.663 147.137 104.847 145.179C100.677 143.04 95.7612 143.084 91.0792 143.309C84.4484 143.629 77.2388 144.472 72.5276 149.149C70.0267 151.805 68.3311 155.117 67.6381 158.698C66.956 162.261 66.6127 165.88 66.6128 169.508C63.8937 164.834 61.6032 159.923 59.7693 154.836C58.2609 151.048 57.4013 147.034 57.2266 142.96C57.069 138.852 58.4321 134.83 61.055 131.664C63.7675 128.632 68.1874 126.996 72.0744 128.196" fill="#2F2E41"/>
<path d="M57.2987 355.975C57.8204 354.601 58.0343 353.129 57.9255 351.663C57.8167 350.197 57.3877 348.772 56.6689 347.49C55.95 346.207 54.9588 345.098 53.7649 344.241C52.571 343.383 51.2036 342.797 49.7589 342.525L44.4967 307.18L30.6688 319.574L37.7858 351.238C37.4894 353.696 38.1048 356.176 39.5152 358.21C40.9256 360.244 43.0331 361.69 45.4383 362.274C47.8435 362.858 50.3794 362.539 52.5653 361.378C54.7513 360.217 56.4354 358.295 57.2987 355.975V355.975Z" fill="#FFB8B8"/>
<path d="M40.215 219.057C38.7718 219.297 37.4543 220.024 36.481 221.117C35.5077 222.209 34.9372 223.601 34.8642 225.062L29.4042 334.262H49.4165L56.0873 276.131L47.5979 224.345C47.4614 223.513 47.162 222.715 46.7169 221.999C46.2717 221.282 45.6895 220.66 45.0037 220.169C44.3179 219.678 43.5419 219.327 42.7202 219.136C41.8984 218.945 41.0471 218.918 40.215 219.057V219.057Z" fill="#48BB78"/>
<path d="M182.738 536.777H11V534.671H183.12L182.738 536.777Z" fill="#CCCCCC"/>
</g>
<path d="M724.98 626.07C724.98 633.52 677.67 676.57 569.98 676.57C462.29 676.57 403.98 635.02 403.98 627.57C403.98 620.12 464.29 638.57 571.98 638.57C679.67 638.57 724.98 618.61 724.98 626.07Z" fill="#F7F7FD"/>
<path opacity="0.1" d="M373.03 523.46C379.359 523.46 384.49 522.757 384.49 521.89C384.49 521.023 379.359 520.32 373.03 520.32C366.701 520.32 361.57 521.023 361.57 521.89C361.57 522.757 366.701 523.46 373.03 523.46Z" fill="#48BB78"/>
<path opacity="0.1" d="M329.14 527.91C335.469 527.91 340.6 527.207 340.6 526.34C340.6 525.473 335.469 524.77 329.14 524.77C322.811 524.77 317.68 525.473 317.68 526.34C317.68 527.207 322.811 527.91 329.14 527.91Z" fill="#48BB78"/>
<path opacity="0.1" d="M277.46 521.89C283.789 521.89 288.92 521.187 288.92 520.32C288.92 519.453 283.789 518.75 277.46 518.75C271.131 518.75 266 519.453 266 520.32C266 521.187 271.131 521.89 277.46 521.89Z" fill="#48BB78"/>
<path opacity="0.1" d="M346.71 540.13C351.206 540.13 354.85 539.629 354.85 539.01C354.85 538.391 351.206 537.89 346.71 537.89C342.214 537.89 338.57 538.391 338.57 539.01C338.57 539.629 342.214 540.13 346.71 540.13Z" fill="#48BB78"/>
<path opacity="0.1" d="M301.16 539.01C305.656 539.01 309.3 538.509 309.3 537.89C309.3 537.271 305.656 536.77 301.16 536.77C296.664 536.77 293.02 537.271 293.02 537.89C293.02 538.509 296.664 539.01 301.16 539.01Z" fill="#48BB78"/>
<path d="M328.9 525.99C328.9 525.99 344.96 473.32 326.38 452.23C312.48 436.45 296.68 438.3 289.68 440.3C287.852 440.787 286.151 441.665 284.695 442.873C283.24 444.082 282.064 445.592 281.25 447.3C278.78 452.63 279.25 461.3 296.67 471.38C325.86 488.28 327.67 511.47 327.67 511.47L328.9 525.99Z" fill="#48BB78"/>
<path d="M292.16 447.76C292.16 447.76 339.52 462.57 328.9 525.99" stroke="#565987" stroke-miterlimit="10"/>
<path d="M319.82 453.07C319.82 453.07 313.3 457.46 315.37 464.07" stroke="#565987" stroke-miterlimit="10"/>
<path d="M296.91 456.98C296.91 456.98 300.91 452.92 305.74 455.16" stroke="#565987" stroke-miterlimit="10"/>
<path d="M315.68 477.37C315.68 477.37 322.68 473.82 324.49 478.27" stroke="#565987" stroke-miterlimit="10"/>
<path d="M332.95 484.78C332.95 484.78 327.69 484.36 327.6 486.87" stroke="#565987" stroke-miterlimit="10"/>
<path d="M329.55 526.41C329.55 526.41 310.73 488.13 305.55 488.97C303.1 489.37 301.97 491.78 301.45 494.21C300.807 497.345 301.156 500.603 302.45 503.53C305.16 509.65 312.33 521.3 329.55 526.41Z" fill="#48BB78"/>
<path d="M305.68 496.23C305.68 496.23 325.43 524.87 329.25 526.13" stroke="#565987" stroke-miterlimit="10"/>
<path d="M303.89 500.7H308.5" stroke="#565987" stroke-miterlimit="10"/>
<path d="M309.41 511.18L316.63 511.49" stroke="#565987" stroke-miterlimit="10"/>
<path d="M313.81 502.8L313.02 506.56" stroke="#565987" stroke-miterlimit="10"/>
<path d="M321.49 514.25L321.35 517.67" stroke="#565987" stroke-miterlimit="10"/>
<path d="M328.99 526.41C328.99 526.41 347.8 488.13 352.99 488.97C355.45 489.37 356.58 491.78 357.09 494.21C357.729 497.345 357.379 500.602 356.09 503.53C353.38 509.65 346.21 521.3 328.99 526.41Z" fill="#48BB78"/>
<path d="M352.83 496.23C352.83 496.23 333.08 524.87 329.27 526.13" stroke="#565987" stroke-miterlimit="10"/>
<path d="M354.65 500.7H350.04" stroke="#565987" stroke-miterlimit="10"/>
<path d="M349.13 511.18L341.9 511.49" stroke="#565987" stroke-miterlimit="10"/>
<path d="M344.73 502.8L345.52 506.56" stroke="#565987" stroke-miterlimit="10"/>
<path d="M337.05 514.25L337.19 517.67" stroke="#565987" stroke-miterlimit="10"/>
<path d="M296.68 535.35C296.167 534.931 295.794 534.366 295.61 533.73C295.526 533.412 295.554 533.075 295.691 532.776C295.828 532.477 296.064 532.234 296.36 532.09C297.04 531.82 297.78 532.3 298.36 532.78C298.598 533.06 298.891 533.287 299.222 533.448C299.552 533.608 299.913 533.697 300.28 533.71C299.905 533.37 299.625 532.939 299.466 532.459C299.306 531.979 299.273 531.466 299.37 530.97C299.409 530.765 299.498 530.572 299.63 530.41C300.01 530 300.7 530.18 301.16 530.5C302.61 531.5 303.01 533.5 303.02 535.27C303.098 534.606 303.098 533.934 303.02 533.27C302.99 532.941 303.042 532.611 303.171 532.307C303.301 532.003 303.503 531.737 303.76 531.53C304.104 531.345 304.49 531.252 304.88 531.26C305.204 531.214 305.535 531.236 305.85 531.326C306.165 531.415 306.458 531.57 306.71 531.78C306.949 532.11 307.072 532.51 307.059 532.917C307.047 533.324 306.899 533.716 306.64 534.03C306.1 534.637 305.461 535.148 304.75 535.54C304.206 535.86 303.744 536.301 303.4 536.83C303.357 536.902 303.323 536.979 303.3 537.06H299.2C298.29 536.6 297.443 536.026 296.68 535.35V535.35Z" fill="#48BB78"/>
<path d="M368.38 519.93C367.868 519.515 367.495 518.953 367.31 518.32C367.225 518.001 367.253 517.662 367.39 517.361C367.527 517.06 367.764 516.816 368.06 516.67C368.425 516.599 368.803 516.626 369.155 516.749C369.506 516.872 369.819 517.087 370.06 517.37C370.297 517.651 370.59 517.878 370.921 518.036C371.252 518.195 371.613 518.282 371.98 518.29C371.605 517.951 371.324 517.52 371.164 517.04C371.005 516.56 370.972 516.046 371.07 515.55C371.104 515.346 371.194 515.156 371.33 515C371.71 514.59 372.4 514.76 372.86 515.08C374.31 516.08 374.71 518.08 374.72 519.86C374.797 519.196 374.797 518.524 374.72 517.86C374.69 517.531 374.742 517.201 374.871 516.897C375 516.593 375.203 516.327 375.46 516.12C375.803 515.933 376.19 515.843 376.58 515.86C376.904 515.811 377.236 515.832 377.551 515.922C377.867 516.012 378.16 516.168 378.41 516.38C378.65 516.708 378.773 517.106 378.761 517.512C378.748 517.918 378.6 518.308 378.34 518.62C377.8 519.227 377.161 519.738 376.45 520.13C375.908 520.452 375.447 520.894 375.1 521.42C375.057 521.492 375.023 521.569 375 521.65H370.9C369.988 521.191 369.14 520.612 368.38 519.93V519.93Z" fill="#48BB78"/>
<path d="M344.48 535.35C343.967 534.931 343.594 534.366 343.41 533.73C343.328 533.412 343.357 533.076 343.494 532.777C343.63 532.478 343.866 532.236 344.16 532.09C344.85 531.82 345.58 532.3 346.16 532.78C346.398 533.06 346.692 533.287 347.022 533.447C347.353 533.607 347.713 533.697 348.08 533.71C347.706 533.37 347.427 532.939 347.27 532.458C347.112 531.978 347.081 531.466 347.18 530.97C347.211 530.764 347.297 530.57 347.43 530.41C347.81 530 348.5 530.18 348.96 530.5C350.41 531.5 350.82 533.5 350.83 535.27C350.903 534.605 350.903 533.935 350.83 533.27C350.8 532.941 350.852 532.611 350.981 532.307C351.111 532.003 351.313 531.737 351.57 531.53C352.041 531.313 352.561 531.222 353.078 531.266C353.595 531.31 354.092 531.487 354.52 531.78C354.762 532.109 354.887 532.509 354.875 532.917C354.862 533.325 354.712 533.717 354.45 534.03C353.912 534.639 353.273 535.15 352.56 535.54C352.02 535.865 351.559 536.305 351.21 536.83C351.171 536.904 351.137 536.981 351.11 537.06H347.02C346.102 536.604 345.248 536.029 344.48 535.35V535.35Z" fill="#48BB78"/>
<path d="M276.68 504.19C276.68 504.19 275.15 506.19 277.39 509.19C279.63 512.19 281.49 514.78 280.74 516.67C280.74 516.67 277.35 511.04 274.6 510.96C271.85 510.88 273.68 507.57 276.68 504.19Z" fill="#48BB78"/>
<path opacity="0.1" d="M276.68 504.19C276.546 504.383 276.441 504.596 276.37 504.82C273.68 507.97 272.25 510.92 274.83 510.99C277.24 511.06 280.13 515.37 280.83 516.45C280.809 516.535 280.783 516.619 280.75 516.7C280.75 516.7 277.36 511.07 274.61 510.99C271.86 510.91 273.68 507.57 276.68 504.19Z" fill="black"/>
<path d="M273.86 506.74C273.86 507.45 273.94 508.02 274.04 508.02C274.14 508.02 274.21 507.45 274.21 506.74C274.21 506.03 274.12 506.37 274.02 506.37C273.92 506.37 273.86 506.04 273.86 506.74Z" fill="#FFD037"/>
<path d="M272.88 507.59C273.5 507.93 274.04 508.13 274.09 508.04C274.14 507.95 273.67 507.61 273.09 507.28C272.51 506.95 272.71 507.18 272.67 507.28C272.63 507.38 272.26 507.3 272.88 507.59Z" fill="#FFD037"/>
<path d="M284.82 504.19C284.82 504.19 286.36 506.19 284.11 509.19C281.86 512.19 280.02 514.78 280.77 516.67C280.77 516.67 284.15 511.04 286.91 510.96C289.67 510.88 287.85 507.57 284.82 504.19Z" fill="#48BB78"/>
<path opacity="0.1" d="M284.82 504.19C284.954 504.383 285.059 504.596 285.13 504.82C287.82 507.97 289.25 510.92 286.67 510.99C284.26 511.06 281.38 515.37 280.67 516.45C280.691 516.535 280.717 516.619 280.75 516.7C280.75 516.7 284.13 511.07 286.89 510.99C289.65 510.91 287.85 507.57 284.82 504.19Z" fill="black"/>
<path d="M287.68 506.74C287.68 507.45 287.61 508.02 287.51 508.02C287.41 508.02 287.33 507.45 287.33 506.74C287.33 506.03 287.43 506.37 287.53 506.37C287.63 506.37 287.68 506.04 287.68 506.74Z" fill="#FFD037"/>
<path d="M288.68 507.59C288.06 507.93 287.52 508.13 287.48 508.04C287.44 507.95 287.89 507.61 288.48 507.28C289.07 506.95 288.86 507.18 288.91 507.28C288.96 507.38 289.27 507.3 288.68 507.59Z" fill="#FFD037"/>
<path d="M287.19 516.44C287.19 516.44 282.89 516.31 281.6 515.39C280.31 514.47 275 513.39 274.68 514.84C274.36 516.29 268.23 522.19 273.07 522.23C277.91 522.27 284.33 521.47 285.62 520.69C286.91 519.91 287.19 516.44 287.19 516.44Z" fill="#A8A8A8"/>
<path opacity="0.2" d="M272.99 521.71C277.83 521.71 284.25 520.96 285.54 520.17C286.54 519.57 286.91 517.42 287.04 516.43H287.19C287.19 516.43 286.91 519.89 285.62 520.68C284.33 521.47 277.92 522.26 273.07 522.22C271.68 522.22 271.19 521.71 271.22 520.97C271.41 521.43 271.95 521.7 272.99 521.71Z" fill="black"/>
<g opacity="0.1">
<path opacity="0.1" d="M565.72 463.78C649.734 463.78 717.84 433.385 717.84 395.89C717.84 358.395 649.734 328 565.72 328C481.706 328 413.6 358.395 413.6 395.89C413.6 433.385 481.706 463.78 565.72 463.78Z" fill="black"/>
<path opacity="0.1" d="M720.48 420.16C713.75 455.56 647.25 483.35 566.19 483.35C484.42 483.35 417.46 455.07 411.72 419.24H411.15V476.93C437.89 504.87 497.09 524.3 565.81 524.3C634.53 524.3 693.73 504.87 720.48 476.93V420.16Z" fill="black"/>
<path opacity="0.1" d="M720.48 490.36C713.75 525.75 647.25 553.55 566.19 553.55C484.42 553.55 417.46 525.27 411.72 489.43H411.15V547.13C437.89 575.07 497.09 594.49 565.81 594.49C634.53 594.49 693.73 575.07 720.48 547.13V490.36Z" fill="black"/>
<path opacity="0.1" d="M720.48 567.57C713.75 602.97 647.25 630.76 566.19 630.76C484.42 630.76 417.46 602.49 411.72 566.65H411.15V628.87C411.147 630.196 411.42 631.508 411.95 632.723C412.48 633.938 413.256 635.03 414.23 635.93C442.23 661.64 499.62 671.71 565.81 671.71C632 671.71 689.36 661.64 717.4 635.93C718.373 635.03 719.15 633.938 719.68 632.723C720.21 631.508 720.482 630.196 720.48 628.87V567.57Z" fill="black"/>
</g>
<path d="M565.72 459.78C649.734 459.78 717.84 429.385 717.84 391.89C717.84 354.395 649.734 324 565.72 324C481.706 324 413.6 354.395 413.6 391.89C413.6 429.385 481.706 459.78 565.72 459.78Z" fill="#48BB78"/>
<path d="M720.48 416.16C713.75 451.56 647.25 479.35 566.19 479.35C484.42 479.35 417.46 451.07 411.72 415.24H411.15V472.93C437.89 500.87 497.09 520.3 565.81 520.3C634.53 520.3 693.73 500.87 720.48 472.93V416.16Z" fill="#48BB78"/>
<path d="M720.48 486.36C713.75 521.75 647.25 549.55 566.19 549.55C484.42 549.55 417.46 521.27 411.72 485.43H411.15V543.13C437.89 571.07 497.09 590.49 565.81 590.49C634.53 590.49 693.73 571.07 720.48 543.13V486.36Z" fill="#48BB78"/>
<path d="M720.48 563.57C713.75 598.97 647.25 626.76 566.19 626.76C484.42 626.76 417.46 598.49 411.72 562.65H411.15V624.87C411.147 626.196 411.42 627.508 411.95 628.723C412.48 629.938 413.256 631.03 414.23 631.93C442.23 657.64 499.62 667.71 565.81 667.71C632 667.71 689.36 657.64 717.4 631.93C718.373 631.03 719.15 629.938 719.68 628.723C720.21 627.508 720.482 626.196 720.48 624.87V563.57Z" fill="#48BB78"/>
<defs>
<clipPath id="clip0">
<rect width="765.839" height="536.777" fill="white" transform="translate(11)"/>
</clipPath>
</defs>
</svg>
