<svg width="682" height="622" viewBox="0 0 682 622" fill="none" xmlns="http://www.w3.org/2000/svg">
<path d="M328.063 520.128C267.896 520.127 209.591 499.265 163.081 461.095C116.571 422.926 84.7352 369.81 72.9974 310.799C61.2595 251.788 70.346 190.533 98.7086 137.47C127.071 84.4076 172.955 42.821 228.542 19.7961C284.13 -3.22877 345.981 -6.26724 403.557 11.1984C461.133 28.664 510.872 65.5532 544.299 115.58C577.726 165.607 592.773 225.677 586.876 285.555C580.978 345.432 554.501 401.412 511.957 443.957C487.864 468.181 459.205 487.387 427.64 500.462C396.074 513.536 362.229 520.221 328.063 520.128V520.128ZM328.063 1.9986C185.767 1.9986 69.9989 117.766 69.9989 260.064C69.9989 402.361 185.767 518.128 328.063 518.128C470.36 518.128 586.128 402.361 586.128 260.064C586.128 117.766 470.36 1.9986 328.063 1.9986V1.9986Z" fill="#CCCCCC"/>
<path d="M370 574V386H230V574H370Z" fill="#2F2E41"/>
<path d="M658 294V106L518 106V294H658Z" fill="#2F2E41"/>
<path d="M174.249 194V6L34.2492 6V194H174.249Z" fill="#2F2E41"/>
<path d="M394 380H206V455H394V380Z" fill="#3F3D56"/>
<path d="M682 100H494V175H682V100Z" fill="#3F3D56"/>
<path d="M198.249 0H10.2491V75H198.249V0Z" fill="#3F3D56"/>
<path d="M394 463H206V538H394V463Z" fill="#3F3D56"/>
<path d="M682 183H494V258H682V183Z" fill="#3F3D56"/>
<path d="M198.249 83H10.2491V158H198.249V83Z" fill="#3F3D56"/>
<path d="M394 547H206V622H394V547Z" fill="#3F3D56"/>
<path d="M682 267H494V342H682V267Z" fill="#3F3D56"/>
<path d="M198.249 167H10.2491V242H198.249V167Z" fill="#3F3D56"/>
<path d="M394 412H206V423H394V412Z" fill="#48BB78"/>
<path d="M682 132H494V143H682V132Z" fill="#48BB78"/>
<path d="M198.249 32H10.2491V43H198.249V32Z" fill="#48BB78"/>
<path d="M394 495H206V507H394V495Z" fill="#48BB78"/>
<path d="M682 215H494V227H682V215Z" fill="#48BB78"/>
<path d="M198.249 115H10.2491V127H198.249V115Z" fill="#48BB78"/>
<path d="M394 579H206V590H394V579Z" fill="#48BB78"/>
<path d="M682 299H494V310H682V299Z" fill="#48BB78"/>
<path d="M198.249 199H10.2491V210H198.249V199Z" fill="#48BB78"/>
<path d="M357.5 395C359.985 395 362 392.985 362 390.5C362 388.015 359.985 386 357.5 386C355.015 386 353 388.015 353 390.5C353 392.985 355.015 395 357.5 395Z" fill="#48BB78"/>
<path d="M645.5 115C647.985 115 650 112.985 650 110.5C650 108.015 647.985 106 645.5 106C643.015 106 641 108.015 641 110.5C641 112.985 643.015 115 645.5 115Z" fill="#48BB78"/>
<path d="M161.749 15C164.234 15 166.249 12.9853 166.249 10.5C166.249 8.01472 164.234 6 161.749 6C159.264 6 157.249 8.01472 157.249 10.5C157.249 12.9853 159.264 15 161.749 15Z" fill="#48BB78"/>
<path d="M372.5 395C374.985 395 377 392.985 377 390.5C377 388.015 374.985 386 372.5 386C370.015 386 368 388.015 368 390.5C368 392.985 370.015 395 372.5 395Z" fill="#48BB78"/>
<path d="M660.5 115C662.985 115 665 112.985 665 110.5C665 108.015 662.985 106 660.5 106C658.015 106 656 108.015 656 110.5C656 112.985 658.015 115 660.5 115Z" fill="#48BB78"/>
<path d="M176.749 15C179.234 15 181.249 12.9853 181.249 10.5C181.249 8.01472 179.234 6 176.749 6C174.264 6 172.249 8.01472 172.249 10.5C172.249 12.9853 174.264 15 176.749 15Z" fill="#48BB78"/>
<path d="M387.5 395C389.985 395 392 392.985 392 390.5C392 388.015 389.985 386 387.5 386C385.015 386 383 388.015 383 390.5C383 392.985 385.015 395 387.5 395Z" fill="#48BB78"/>
<path d="M675.5 115C677.985 115 680 112.985 680 110.5C680 108.015 677.985 106 675.5 106C673.015 106 671 108.015 671 110.5C671 112.985 673.015 115 675.5 115Z" fill="#48BB78"/>
<path d="M191.749 15C194.234 15 196.249 12.9853 196.249 10.5C196.249 8.01472 194.234 6 191.749 6C189.264 6 187.249 8.01472 187.249 10.5C187.249 12.9853 189.264 15 191.749 15Z" fill="#48BB78"/>
<path d="M357.5 477C359.985 477 362 474.985 362 472.5C362 470.015 359.985 468 357.5 468C355.015 468 353 470.015 353 472.5C353 474.985 355.015 477 357.5 477Z" fill="#48BB78"/>
<path d="M645.5 197C647.985 197 650 194.985 650 192.5C650 190.015 647.985 188 645.5 188C643.015 188 641 190.015 641 192.5C641 194.985 643.015 197 645.5 197Z" fill="#48BB78"/>
<path d="M161.749 97C164.234 97 166.249 94.9853 166.249 92.5C166.249 90.0147 164.234 88 161.749 88C159.264 88 157.249 90.0147 157.249 92.5C157.249 94.9853 159.264 97 161.749 97Z" fill="#48BB78"/>
<path d="M372.5 477C374.985 477 377 474.985 377 472.5C377 470.015 374.985 468 372.5 468C370.015 468 368 470.015 368 472.5C368 474.985 370.015 477 372.5 477Z" fill="#48BB78"/>
<path d="M660.5 197C662.985 197 665 194.985 665 192.5C665 190.015 662.985 188 660.5 188C658.015 188 656 190.015 656 192.5C656 194.985 658.015 197 660.5 197Z" fill="#48BB78"/>
<path d="M176.749 97C179.234 97 181.249 94.9853 181.249 92.5C181.249 90.0147 179.234 88 176.749 88C174.264 88 172.249 90.0147 172.249 92.5C172.249 94.9853 174.264 97 176.749 97Z" fill="#48BB78"/>
<path d="M387.5 477C389.985 477 392 474.985 392 472.5C392 470.015 389.985 468 387.5 468C385.015 468 383 470.015 383 472.5C383 474.985 385.015 477 387.5 477Z" fill="#48BB78"/>
<path d="M675.5 197C677.985 197 680 194.985 680 192.5C680 190.015 677.985 188 675.5 188C673.015 188 671 190.015 671 192.5C671 194.985 673.015 197 675.5 197Z" fill="#48BB78"/>
<path d="M191.749 97C194.234 97 196.249 94.9853 196.249 92.5C196.249 90.0147 194.234 88 191.749 88C189.264 88 187.249 90.0147 187.249 92.5C187.249 94.9853 189.264 97 191.749 97Z" fill="#48BB78"/>
<path d="M357.5 559C359.985 559 362 556.985 362 554.5C362 552.015 359.985 550 357.5 550C355.015 550 353 552.015 353 554.5C353 556.985 355.015 559 357.5 559Z" fill="#48BB78"/>
<path d="M645.5 279C647.985 279 650 276.985 650 274.5C650 272.015 647.985 270 645.5 270C643.015 270 641 272.015 641 274.5C641 276.985 643.015 279 645.5 279Z" fill="#48BB78"/>
<path d="M161.749 179C164.234 179 166.249 176.985 166.249 174.5C166.249 172.015 164.234 170 161.749 170C159.264 170 157.249 172.015 157.249 174.5C157.249 176.985 159.264 179 161.749 179Z" fill="#48BB78"/>
<path d="M372.5 559C374.985 559 377 556.985 377 554.5C377 552.015 374.985 550 372.5 550C370.015 550 368 552.015 368 554.5C368 556.985 370.015 559 372.5 559Z" fill="#48BB78"/>
<path d="M660.5 279C662.985 279 665 276.985 665 274.5C665 272.015 662.985 270 660.5 270C658.015 270 656 272.015 656 274.5C656 276.985 658.015 279 660.5 279Z" fill="#48BB78"/>
<path d="M176.749 179C179.234 179 181.249 176.985 181.249 174.5C181.249 172.015 179.234 170 176.749 170C174.264 170 172.249 172.015 172.249 174.5C172.249 176.985 174.264 179 176.749 179Z" fill="#48BB78"/>
<path d="M387.5 559C389.985 559 392 556.985 392 554.5C392 552.015 389.985 550 387.5 550C385.015 550 383 552.015 383 554.5C383 556.985 385.015 559 387.5 559Z" fill="#48BB78"/>
<path d="M675.5 279C677.985 279 680 276.985 680 274.5C680 272.015 677.985 270 675.5 270C673.015 270 671 272.015 671 274.5C671 276.985 673.015 279 675.5 279Z" fill="#48BB78"/>
<path d="M191.749 179C194.234 179 196.249 176.985 196.249 174.5C196.249 172.015 194.234 170 191.749 170C189.264 170 187.249 172.015 187.249 174.5C187.249 176.985 189.264 179 191.749 179Z" fill="#48BB78"/>
<path d="M36.9975 257.91H0V294.908H36.9975V257.91Z" fill="#E6E6E6"/>
</svg>
