<svg width="1840" height="1330" viewBox="0 0 1840 1330" fill="none" xmlns="http://www.w3.org/2000/svg">
<path d="M918.659 1096.63C1175.14 1096.63 1383.06 888.71 1383.06 632.227C1383.06 375.744 1175.14 167.823 918.659 167.823C662.175 167.823 454.255 375.744 454.255 632.227C454.255 888.71 662.175 1096.63 918.659 1096.63Z" fill="#48BB78"/>
<path d="M514.708 533.465L512.284 533.047C512.407 532.334 525.177 461.142 574.545 406.545L576.366 408.193C527.477 462.261 514.831 532.764 514.708 533.465Z" fill="white"/>
<path d="M582.001 361.422L579.971 360.044C580.364 359.466 619.879 302.15 683.271 274.188L684.268 276.439C621.539 304.106 582.394 360.856 582.001 361.422Z" fill="white"/>
<path d="M1355.95 623.8H1353.49C1353.49 535.508 1313.42 455.483 1313.01 454.683L1315.2 453.576C1315.61 454.376 1355.95 534.905 1355.95 623.8Z" fill="white"/>
<path d="M1308.04 577.766C1306.15 542.594 1294.7 512.995 1294.59 512.7L1296.87 511.802C1296.98 512.097 1308.57 542.053 1310.5 577.63L1308.04 577.766Z" fill="white"/>
<path d="M437.525 516.735L435.113 516.219C435.261 515.505 450.798 444.682 505.247 373.108L507.204 374.597C453.087 445.74 437.672 516.034 437.525 516.735Z" fill="black"/>
<path d="M514.437 318.807L512.555 317.232C512.702 317.06 527.133 299.862 545.537 282.491L547.222 284.275C528.916 301.547 514.572 318.635 514.437 318.807Z" fill="black"/>
<path d="M575.283 284.189L573.413 282.589C573.622 282.343 594.708 257.985 634.948 230.527C672.063 205.197 733.549 171.957 815.74 157.379L816.17 159.802C734.41 174.307 673.244 207.375 636.338 232.557C596.356 259.831 575.48 283.943 575.283 284.189Z" fill="black"/>
<path d="M1381.88 473.948C1361.18 389.556 1295.48 316.703 1294.82 315.977L1296.64 314.316C1297.31 315.042 1363.42 388.375 1384.27 473.358L1381.88 473.948Z" fill="black"/>
<path d="M1400.13 596.809C1397.68 566.115 1391.82 539.248 1387.34 522.111L1389.73 521.483C1394.23 538.719 1400.13 565.734 1402.59 596.612L1400.13 596.809Z" fill="black"/>
<path d="M1413.47 712.818L1411.07 712.264C1413.19 703.111 1415.04 693.184 1416.56 682.764L1419 683.12C1417.46 693.602 1415.59 703.591 1413.47 712.818Z" fill="black"/>
<path d="M1423.55 637.074L1421.09 636.938C1423.02 601.509 1421.31 567.346 1416.82 551.931L1419.18 551.242C1423.75 566.903 1425.49 601.398 1423.55 637.074Z" fill="black"/>
<path d="M1384.83 749.159L1382.5 748.408C1386.82 734.974 1390.48 716.275 1393.4 692.864L1395.83 693.172C1392.9 716.73 1389.2 735.565 1384.83 749.159Z" fill="black"/>
<path d="M1398.05 672.615L1395.6 672.393C1396.5 662.65 1396.89 656.179 1396.89 656.105L1399.35 656.253C1399.34 656.315 1398.94 662.847 1398.05 672.615Z" fill="black"/>
<path d="M1148.93 208.998C1084.45 167.958 976.466 153.86 975.384 153.725L975.691 151.289C975.962 151.326 1003.31 154.844 1038.31 163.419C1070.64 171.341 1116.29 185.317 1150.26 206.931L1148.93 208.998Z" fill="black"/>
<path d="M1095.14 164.822C1077.85 157.194 1037.66 148.128 1037.25 148.041L1037.79 145.643C1038.2 145.729 1078.62 154.845 1096.14 162.583L1095.14 164.822Z" fill="black"/>
<path d="M571.74 987.24C566.524 983.119 561.369 978.801 556.424 974.421L558.06 972.576C562.981 976.931 568.098 981.225 573.278 985.309L571.74 987.24Z" fill="black"/>
<path d="M530.172 948.612C459.668 871.724 446.161 787.824 446.025 786.987L448.461 786.618C448.584 787.455 462.006 870.641 531.98 946.951L530.172 948.612Z" fill="black"/>
<path d="M549.498 942.252C524.254 921.437 500.659 873.938 500.425 873.459L502.627 872.376C502.861 872.843 526.235 919.874 551.06 940.357L549.498 942.252Z" fill="black"/>
<path d="M794.014 1100.21C758.129 1093.35 722.675 1081.14 688.635 1063.93L689.742 1061.73C723.585 1078.83 758.818 1090.96 794.482 1097.79L794.014 1100.21Z" fill="black"/>
<path d="M645.159 1038.58C627.518 1026.77 617.639 1018.01 617.541 1017.92L619.177 1016.09C619.276 1016.17 629.043 1024.84 646.525 1036.53L645.159 1038.58Z" fill="black"/>
<path d="M940.938 1126.06L940.815 1123.6C949.919 1123.15 958.826 1122.47 967.277 1121.55L967.548 1124C959.047 1124.93 950.091 1125.61 940.938 1126.06Z" fill="black"/>
<path d="M908.596 1126.62C852.277 1126.01 805.086 1117.57 804.606 1117.48L805.049 1115.06C805.517 1115.14 852.523 1123.56 908.621 1124.16L908.596 1126.62Z" fill="black"/>
<path d="M639.427 965.219C561.825 910.807 533.235 824.496 532.952 823.635L535.29 822.872C535.573 823.733 563.929 909.282 640.841 963.202L639.427 965.219Z" fill="white"/>
<path d="M809.096 1059.37C748.189 1048.67 687.207 1007.9 686.604 1007.48L687.982 1005.44C688.585 1005.84 749.148 1046.33 809.527 1056.93L809.096 1059.37Z" fill="white"/>
<path d="M708.896 985.42C692.682 980.339 673.109 962.194 672.285 961.431L673.958 959.635C674.155 959.819 693.949 978.162 709.622 983.083L708.896 985.42Z" fill="white"/>
<path d="M1000.31 234.403C987.944 241.932 934.171 273.4 895.358 302.999C889.182 307.711 884.582 314.169 882.158 321.551C877.126 336.916 872.612 353.979 871.332 358.924C871.037 360.069 871.185 361.286 871.775 362.307C875.404 368.705 895.297 390.725 1003.68 429.059L1029.12 374.031C1029.12 374.031 1013.05 271.641 1008.12 237.441C1007.61 234.009 1003.67 232.361 1000.31 234.403Z" fill="white"/>
<path d="M1245.09 849.802L1111.68 865.475C1090.04 868.021 1071.12 881.271 1061.34 900.745L1001.62 1020.73C999.077 1025.8 993.418 1028.49 987.882 1027.27L966.661 1022.6C951.776 1019.31 936.902 1028.15 932.658 1042.78L929.337 1054.26C927.491 1060.62 930.395 1067.39 936.275 1070.44L1034.24 1121.21C1040.73 1124.57 1048.72 1122.32 1052.49 1116.06L1150.95 955.723L1287.02 947.148L1245.09 849.802Z" fill="black"/>
<path d="M1169.58 747.351L1179.31 722.943L1259.81 727.261L1230.57 837.771L1169.58 747.351Z" fill="black"/>
<path d="M1159.42 688.362C1159.42 688.362 1168.27 665.468 1168.13 653.031C1167.96 636.485 1169.76 602.814 1159.21 604.401C1152.79 605.36 1150.87 620.935 1150.09 627.627C1149.78 630.272 1148.76 632.806 1146.98 634.799C1144.46 637.641 1140.88 638.736 1139 625.856C1135.94 604.868 1136.6 564.48 1124.41 571.874C1118.23 575.626 1121.54 612.299 1118.05 610.675C1114.56 609.051 1114.99 553.667 1100.13 559.707C1095.22 561.7 1096.32 588.162 1097.33 602.961C1097.4 603.786 1096.19 603.958 1096.01 603.146C1094 594.202 1090.92 581.174 1088.46 573.535C1085.82 565.305 1079.67 569.61 1079.67 575.614C1079.67 588.531 1081.86 615.731 1081.86 615.731L1159.42 688.362Z" fill="black"/>
<path d="M1366.04 761.843L1388.18 799.979L1336.51 966.057C1331.66 982.899 1312.4 993.405 1295.1 990.526L1228.6 983.145C1220.06 981.718 1217 986.097 1219.99 994.217L1248.69 1125.91C1253.56 1139.16 1246.01 1153.73 1232.36 1157.38L1133.4 1183.83C1123.82 1186.39 1114.25 1179.7 1113.38 1169.82L1107.68 1135.83C1107.45 1133.23 1106.71 1122.81 1112.6 1118.6C1121.21 1112.45 1134.75 1103.84 1134.75 1103.84C1139.31 1101.39 1139.78 1094.07 1138.44 1089.08L1100.84 942.88C1094.7 920.01 1108.94 902.283 1132.3 898.396C1161.82 893.475 1211.03 882.403 1211.03 882.403L1232.1 744.927C1234.87 734.015 1244.95 726.548 1256.2 727.089L1288.53 728.627L1366.04 761.843Z" fill="white"/>
<path d="M1353.33 725.7C1360.06 697.235 1342.43 668.71 1313.96 661.988C1285.5 655.267 1256.97 672.894 1250.25 701.359C1243.53 729.825 1261.16 758.349 1289.62 765.071C1318.09 771.792 1346.61 754.165 1353.33 725.7Z" fill="white"/>
<path d="M820.845 712.806L996.839 553.593C1005.93 545.363 1019.23 546.015 1029.99 551.883C1051.76 563.754 1089.08 584.975 1122.37 621.045C1150.32 651.333 1196.76 699.422 1202.25 740.129C1202.87 744.792 1201.25 749.466 1197.99 752.849C1144.33 808.443 1035.17 910.833 1022.97 921.24C994.083 945.881 919.176 890.251 876.5 840.649C858.674 819.945 798.541 733.843 820.845 712.806Z" fill="white"/>
<path d="M1394.21 771.585C1377.87 755.506 1349.95 756.466 1332.72 771.228L1271.67 826.834C1268.32 829.614 1263.36 829.184 1260.55 825.874L1217.29 775.313C1210.33 767.156 1206.12 757.02 1205.26 746.341L1203.7 727.064C1203.59 725.76 1203.28 724.481 1202.76 723.275L1194.88 702.976C1193.8 700.184 1190.03 699.839 1188.39 702.349C1186.18 705.757 1184.97 710.887 1184.97 715.98C1184.97 725.821 1187.29 736.45 1183.6 736.45C1178.68 736.45 1172.83 726.781 1170.33 717.702C1167.47 707.258 1166.04 698.929 1160.99 694.304C1158.7 692.212 1154.63 693.59 1154 697.071C1152.53 705.092 1154.22 720.199 1154.35 728.774C1154.39 731.234 1152.19 731.185 1151.51 728.196C1149.43 718.932 1143.76 690.625 1143.76 690.625C1142.86 686.898 1137.72 686.467 1136.23 690.01C1131.98 700.184 1133.56 722.315 1134.34 730.545C1134.41 731.271 1133.43 731.567 1133.1 730.927C1131.04 727.089 1127.41 719.535 1124.82 709.915C1124.24 707.774 1121.31 707.307 1120.23 709.238C1116.97 715.106 1118.63 729.118 1119.5 734.876C1119.59 735.417 1118.85 735.663 1118.58 735.196C1117.17 732.711 1116.08 730.361 1114.99 727.556C1113.57 723.927 1110.53 726.006 1110.28 728.306C1109.42 736.069 1108.97 747.166 1112.27 761.387C1113.46 766.517 1117.78 781.907 1137.13 805.047L1240.47 919.456C1258.92 942.83 1282.57 936.667 1295.83 926.838C1329.04 902.233 1390.36 841.621 1390.36 841.621C1413.68 821.938 1408.8 785.942 1394.21 771.585Z" fill="white"/>
<path d="M932.092 807.742C870.336 741.729 838.141 722.698 822.419 720.938C818.938 720.545 815.924 723.264 815.948 726.77C816.133 758.927 861.429 823.156 876.487 840.675C910.859 880.644 966.181 924.526 1001.49 927.171C1004.19 927.367 1006.38 925.018 1006.08 922.336C1003.94 903.464 989.026 868.6 932.092 807.742Z" fill="#F2BDBA"/>
<path d="M872.305 363.206C877.189 374.967 933.311 411.147 1003.65 429.071L1005.75 424.557C978.447 400.629 931.256 376.615 896.22 367.573C883.377 364.264 876.377 362.726 872.305 363.206Z" fill="#F2BDBA"/>
<path d="M1007.01 258.108C1000.57 252.732 992.901 249.165 984.253 247.504L984.72 245.093C993.787 246.84 1001.81 250.58 1008.59 256.214L1007.01 258.108Z" fill="black"/>
<path d="M1101.07 666.169L1075.03 644.358C1070.95 640.938 1065.64 639.351 1060.35 639.991C1039.26 642.525 984.093 649.943 965.603 660.105C958.751 663.869 943.915 680.305 943.915 680.305C938.539 685.877 938.514 694.698 943.865 700.308L977.721 737.718C980.07 740.314 984.032 740.609 986.738 738.395L1013.8 716.227C1016.73 713.828 1017.03 709.448 1014.44 706.668L1008.99 700.837C1006.82 698.795 1007.82 695.141 1010.75 694.513L1098.76 675.617C1103.14 674.646 1104.53 669.06 1101.07 666.169ZM1060.51 704.318C1056.28 701.317 1051.02 701.058 1047.03 704.355L965.271 771.881C960.35 775.941 960.043 785.82 964.213 790.654C967.448 794.406 973.969 801.886 977.13 805.724C982.974 812.823 992.569 813.044 997.281 808.751L1019.35 788.637C1021.36 786.816 1024.46 786.939 1026.3 788.92L1030.98 793.939C1034.29 797.408 1039.75 797.58 1043.27 794.333L1067.64 771.82C1072.25 767.551 1072.29 760.268 1067.7 755.962L1065.45 753.846C1063.34 751.878 1063.37 748.52 1065.5 746.588L1076.72 736.365C1080.9 732.551 1082.39 724.002 1077.11 719.019C1077.12 719.019 1065.99 708.218 1060.51 704.318Z" fill="black"/>
<path d="M882.281 369.787C897.794 382.003 938.342 404.22 988.423 420.471L990.072 417.015C969.38 399.435 922.251 377.599 883.29 367.732C882.072 367.425 881.285 369.012 882.281 369.787Z" fill="black"/>
<path d="M826.48 733.72C833.516 724.813 895.691 782.818 916.765 804.31C952.834 841.08 1005.22 912.248 992.595 915.57C984.734 917.636 936.103 890.399 884.767 832.371C845.708 788.206 822.137 739.219 826.48 733.72Z" fill="black"/>
<path d="M1241.88 220.477L1240.06 209.429C1238.55 200.24 1229.46 195.737 1220.68 198.862C1209.16 202.946 1194.23 207.793 1186.13 214.092C1182.92 216.589 1181.17 220.526 1181.51 224.573C1184.47 260.532 1187.87 288.556 1189.48 300.932C1190.04 305.324 1188.59 309.741 1185.52 312.927L1149.59 350.288L1186.02 368.914L1254.21 305.373L1241.88 220.477Z" fill="black"/>
<path d="M1003.67 429.071L1029.72 372.715C1034.24 362.959 1043.76 356.501 1054.49 355.898L1108.48 352.909C1121.77 352.17 1134.7 348.332 1146.23 341.701C1155.68 336.276 1167.31 336.325 1176.71 341.849C1182.88 345.478 1190.68 344.802 1196.14 340.164L1215.64 323.605C1217.88 321.698 1219.09 318.856 1218.9 315.929C1217.87 300.256 1214.59 248.931 1214.17 223.909C1214.11 220.427 1216.06 217.217 1219.19 215.691C1232.16 209.356 1252.49 206.268 1268.06 208.925C1271.91 209.577 1274.93 212.739 1275.17 216.638C1276.22 233.714 1264.56 252.007 1264.56 252.007L1274.83 329.227C1277.09 346.253 1269.82 363.144 1255.91 373.207L1191.04 420.103C1186.12 423.658 1181 426.955 1175.71 429.944C1163.15 437.067 1149.72 442.529 1135.75 446.183L1086.04 459.186L1003.67 429.071Z" fill="white"/>
<path d="M1026.02 378.436L1056.22 373.859L1079.69 398.796L1034.2 442.087L1010.14 414.899L1026.02 378.436Z" fill="black"/>
<path d="M1099.9 364.321C1105.81 341.708 1092.27 318.585 1069.66 312.674C1047.05 306.764 1023.93 320.303 1018.02 342.916C1012.11 365.528 1025.64 388.651 1048.26 394.562C1070.87 400.473 1093.99 386.933 1099.9 364.321Z" fill="white"/>
<path d="M950.607 338.096L958.616 325.733C959.969 323.641 959.145 320.837 956.869 319.816L953.523 318.315C951.505 317.404 951.247 314.649 953.067 313.382L988.83 288.593C990.638 287.338 990.232 284.558 988.141 283.857L971.767 278.456C969.823 277.816 967.707 278.099 965.997 279.231L930.788 302.543C928.623 303.97 926.876 305.939 925.695 308.239L920.75 317.884C918.253 322.756 920.393 328.722 925.412 330.887L945.575 339.61C947.408 340.409 949.537 339.757 950.607 338.096ZM992.889 332.634L991.069 331.502C989.445 330.494 988.83 328.439 989.617 326.705L992.028 321.415C993.443 318.315 992.237 314.649 989.26 312.988L981.178 308.485C978.004 306.726 974.006 307.87 972.271 311.056L947.851 355.565C946.228 358.53 947.126 362.245 949.93 364.14L958.579 369.959C961.765 372.099 966.108 371.041 967.965 367.683L974.965 354.926C976.011 353.031 978.422 352.391 980.267 353.511L981.227 354.101C983.331 355.393 986.086 354.606 987.193 352.404L994.415 338.133C995.424 336.177 994.747 333.791 992.889 332.634Z" fill="black"/>
<path d="M1131.3 374.831C1119.47 364.264 1101.42 364.891 1090.33 376.234L1057.39 409.966C1054.82 412.599 1051.03 413.645 1047.47 412.71L998.499 399.854C995.116 398.968 992.052 397.147 989.654 394.601L975.592 379.691C974.424 378.448 972.32 378.67 971.569 380.195C970.794 381.758 970.315 384.316 971.114 388.462C972.886 397.689 967.534 397.664 962.097 393.309C959.292 391.07 954.949 387.576 951.406 384.71C948.712 382.533 944.739 384.476 944.726 387.933C944.702 392.141 945.305 396.963 947.728 399.657C942.783 414.493 951.087 432.11 964.237 439.221C979.418 447.426 1061.24 472.707 1061.24 472.707C1069.19 475.057 1077.79 472.854 1083.63 466.986L1132.55 417.852C1144.56 405.82 1143.98 386.162 1131.3 374.831Z" fill="white"/>
<path d="M1033.38 325.573C1028.13 329.375 1024.05 334.849 1021.63 341.369C1016.16 356.07 1021.32 371.866 1032.83 381.302C1039.03 386.383 1048.49 387.588 1057.89 381.782C1064.01 378.005 1068.63 371.928 1071.31 364.719C1076.01 352.084 1072.84 338.983 1064.45 329.596C1057.56 321.907 1042.11 319.226 1033.38 325.573Z" fill="black"/>
<path d="M727.017 802.095C722.318 784.183 717.089 761.105 714.334 753.268C714.223 752.961 713.842 752.112 713.559 751.927C711.086 750.279 696.569 743.328 679.765 746.133C674.561 747.006 656.698 745.346 649.551 750.771C647.336 752.444 646.5 755.273 646.303 758.041C645.294 772.964 642.809 819.072 643.228 834.634C643.301 837.427 645.221 839.936 647.964 840.49C678.239 846.653 713.448 843.811 729.133 831.964C730.868 830.648 731.84 828.569 731.643 826.392C731.249 822.221 730.166 814.09 727.017 802.095Z" fill="white"/>
<path d="M554.025 682.605L504.005 666.969C501.409 666.157 499.785 663.573 500.166 660.879L507.892 606.836C508.433 603.022 505.789 599.492 501.975 598.938L470.728 594.165C469.264 593.956 466.114 595.051 466.114 599.258C466.114 601.312 466.68 602.456 467.726 603.711L473.373 610.514C474.43 611.781 474.886 613.455 474.615 615.078L467.935 656.413L490.805 705.117L546.373 711.059L554.025 682.605Z" fill="black"/>
<path d="M455.202 612.876L498.678 681.263C499.847 683.108 501.716 684.412 503.845 684.892L513.588 687.057C516.823 687.771 520.206 687.205 523.024 685.483L526.788 683.182C534.255 678.606 543.347 677.536 551.675 680.254L611.316 699.704L593.884 754.067L535.08 739.723C529.974 738.48 524.955 736.955 520.022 735.146C512.69 732.464 501.962 728.368 495.43 725.157C478.588 716.878 473.065 710.431 470.321 705.289C461.599 688.94 440.046 651.886 437.327 647.506C433.797 641.823 426.034 641.331 421.913 640.26C419.366 639.596 417.496 638.476 416.463 636.053L415.934 634.823C415.307 633.359 415.799 631.661 417.103 630.751L445.668 610.797C448.842 608.582 453.234 609.53 455.202 612.876Z" fill="white"/>
<path d="M637.913 736.918L690.541 736.881C694.835 736.857 699.263 738.136 701.527 740.732C702.88 742.282 705.292 745.628 706.571 747.24C707.457 748.371 707.137 749.835 705.857 749.528L699.473 747.24L700.604 751.152C701.379 753.268 699.448 754.227 697.812 753.403L691.452 750.401C691.612 752.173 689.742 753.428 688.155 752.603C685.227 751.078 684.107 750.094 680.06 747.338C679.051 746.661 677.858 746.317 676.64 746.378C665.789 746.92 658.138 748.273 651.519 750.979C646.611 752.985 646.488 758.09 646.401 759.689C646.254 762.383 642.612 770.454 642.612 770.454L608.351 763.404L602.286 740.596L637.913 736.918Z" fill="black"/>
<path d="M617.91 742.996C632.83 742.996 644.925 730.394 644.925 714.848C644.925 699.303 632.83 686.701 617.91 686.701C602.99 686.701 590.895 699.303 590.895 714.848C590.895 730.394 602.99 742.996 617.91 742.996Z" fill="white"/>
<path d="M629.658 781.304C629.658 781.304 613.038 810.657 610.541 828.003C609.741 833.588 613.813 838.718 619.423 839.382C624.393 839.96 632.082 840.243 643.658 839.321C641.985 834.092 645.799 787.615 647.435 768.83C647.656 766.308 644.544 764.955 642.834 766.825L629.658 781.304Z" fill="white"/>
<path d="M686.396 767.317C689.951 774.722 703.372 802.98 706.239 814.323C706.596 815.725 705.488 817.054 704.049 816.968C690.923 816.094 678.252 818.013 672.851 818.998C671.473 819.244 670.243 818.124 670.354 816.734L674.02 771.475C674.081 770.675 674.598 769.974 675.336 769.679L683.664 766.283C684.71 765.853 685.903 766.308 686.396 767.317Z" fill="white"/>
<path d="M703.15 805.182C697.073 789.288 685.522 765.521 685.522 765.521L682.803 766.628L695.695 816.746C699.275 816.709 703.015 816.931 706.755 817.288C706.583 814.901 705.168 810.485 703.15 805.182Z" fill="black"/>
<path d="M706.767 817.287C706.755 817.078 696.839 809.033 696.839 809.033C695.142 807.741 692.854 807.569 690.996 808.59L671.62 819.207C676.295 818.309 691.525 815.811 706.767 817.287Z" fill="black"/>
<path d="M608.744 723.115C608.289 728.024 609.384 732.637 611.562 736.512C613.026 739.108 615.781 740.781 618.771 740.781C618.783 740.781 618.807 740.781 618.82 740.781C632.278 740.781 643.19 729.414 643.19 715.39C643.19 715.365 643.19 715.328 643.19 715.303C643.166 709.386 638.934 704.354 633.336 703.42C631.626 703.137 629.842 703.063 628.009 703.223C617.897 704.145 609.716 712.597 608.744 723.115Z" fill="black"/>
<path d="M695.905 770.909L690.098 771.586C689.631 771.635 689.397 771.045 689.766 770.762L694.638 767.083C696.545 765.644 695.401 762.618 693.026 762.802C687.749 763.208 680.946 763.774 676.086 764.291C675.287 764.377 674.93 763.294 675.631 762.888C677.809 761.646 678.953 761.043 681.216 759.776C684.452 757.955 681.266 755.396 677.563 755.532C670.637 755.802 663.735 759.973 658.482 759.973C648.985 759.973 622.695 758.693 622.695 758.693C620.616 758.62 618.685 757.562 617.516 755.839L596.16 724.235C590.181 716.337 578.9 714.873 571.113 720.987C563.719 726.782 562.132 737.349 567.508 745.063L598.78 785.131C601.671 788.833 606.063 791.072 610.762 791.232L678.854 790.199C686.974 790.211 692.682 782.855 693.408 779.029C695.499 777.614 696.988 776.064 698.058 774.661C699.3 773.013 697.972 770.663 695.905 770.909Z" fill="white"/>
<path d="M612.115 479.792C612.115 479.792 617.897 501.518 632.475 530.969C653.143 572.71 663.23 589.429 673.859 607.353C686.801 629.177 726.316 651.308 802.552 604.08C881.543 555.155 869.5 522.923 864.259 511.704C861.159 505.061 836.001 458.042 815.124 422.354C806.98 408.428 799.291 396.532 794.174 388.855C789.917 382.471 783.077 378.325 775.45 377.464C754.66 375.114 710.618 375.348 665.334 408.157C602.901 453.404 612.115 479.792 612.115 479.792Z" fill="white"/>
<path d="M867.432 535.594C869.511 525.101 864.984 514.373 856.164 508.296C833.798 492.869 789.991 492.205 734.447 527.291C673.416 565.845 672.001 598.47 681.08 616.542C698.869 634.097 737.227 644.542 802.539 604.08C849.348 575.096 864.185 551.968 867.432 535.594Z" fill="#F2BDBA"/>
<path d="M692.51 615.349C684.919 604.486 684.772 570.459 741.742 533.811C799.169 496.868 849.546 507.374 856.952 527.291C864.357 547.208 823.096 583.683 777.136 607.033C735.555 628.168 700.924 627.393 692.51 615.349Z" fill="black"/>
<path d="M643.178 831.423C638.171 831.411 632.893 831.682 627.616 832.1C615.732 833.047 614.133 836.787 615.252 837.931C616.298 839.001 617.885 839.579 619.423 839.752C624.393 840.33 634.653 840.662 645.577 839.383C643.178 836.738 643.19 835.458 643.178 831.423Z" fill="black"/>
<path d="M726.747 758.176C723.191 753.785 721.162 754.326 714.666 754.228C717.422 763.749 722.219 783.814 727.017 802.107C731.815 820.388 731.84 829.688 731.84 829.688C737.868 828.889 742.727 827.991 754.525 826.01C764.157 824.386 765.018 816.415 760.036 809.033L726.747 758.176Z" fill="white"/>
<path d="M727.127 833.379C727.816 831.632 726.684 829.885 723.793 828.458C718.048 825.604 706.804 823.365 684.894 824.595C664.694 825.727 654.446 830.722 649.292 835.126C646.536 837.488 646.721 839.308 649.157 840.785C679.518 848.154 710.925 844.045 727.127 833.379Z" fill="#F2BDBA"/>
<path d="M755.779 826.231C758.215 825.604 758.597 822.996 757.33 822.085C756.788 821.704 756.149 821.31 755.386 820.917C749.395 817.841 739.824 817.878 730.671 818.973C731.827 826.084 732.036 827.794 730.732 830.205C738.188 829.688 755.054 826.416 755.779 826.231Z" fill="black"/>
<path d="M684.87 472.596C681.29 463.591 681.18 453.553 685.399 446.971C686.383 445.433 688.192 442.924 687.282 441.349L679.359 429.859C677.686 426.955 673.319 428.776 671.313 431.47C661.435 444.794 657.744 462.152 665.125 480.679C675.964 507.928 696.09 515.9 716.831 510.831C720.19 510.007 721.826 506.205 720.091 503.216L714.039 493.19C712.71 490.889 710.163 489.622 707.506 489.831C698.55 490.557 689.693 484.701 684.87 472.596ZM743.957 440.451C728.272 415.613 703.348 411.824 687.023 418.024C684.169 419.107 682.877 422.416 684.403 425.061L693.31 437.129C694.368 438.95 696.459 439.836 698.513 439.442C707.223 437.757 717.926 441.127 724.975 451.781C730.573 460.245 730.56 473.494 721.678 482.007C719.734 483.877 719.931 487.088 721.284 489.425L726.968 499.23C729.219 503.105 734.251 503.474 737.683 500.608C753.774 487.174 754.955 457.871 743.957 440.451Z" fill="black"/>
<path d="M1095.34 438.715C1094.49 438.715 1093.63 438.494 1092.84 438.039C1086.82 434.533 1075.94 427.681 1070.84 421.32C1069.4 419.524 1069.43 416.904 1070.95 415.083L1086.93 395.818C1088.61 393.776 1091.6 393.419 1093.73 394.994C1098.75 398.721 1107.89 405.611 1112.75 409.916C1114.71 411.651 1115.01 414.53 1113.46 416.621C1107.88 424.174 1102.3 432.343 1099.49 436.526C1098.52 437.94 1096.94 438.715 1095.34 438.715ZM1090.75 396.47C1090.03 396.47 1089.3 396.778 1088.81 397.38L1072.83 416.646C1072.07 417.568 1072.03 418.872 1072.75 419.77C1077.8 426.057 1089.35 433.155 1094.09 435.911C1095.23 436.575 1096.69 436.243 1097.43 435.148C1100.27 430.941 1105.86 422.747 1111.47 415.145C1112.24 414.087 1112.1 412.623 1111.1 411.749C1106.31 407.505 1097.24 400.665 1092.24 396.962C1091.8 396.63 1091.27 396.47 1090.75 396.47Z" fill="black"/>
<path d="M1327.86 876.67C1327.56 876.67 1327.25 876.658 1326.93 876.621C1324.37 876.375 1322.07 875.132 1320.46 873.14L1293.95 840.231C1290.8 836.319 1291.25 830.624 1294.97 827.253L1324.27 800.766C1326.2 799.019 1328.69 798.158 1331.27 798.343C1333.87 798.527 1336.2 799.721 1337.88 801.701L1365.93 835.126C1369.28 839.124 1368.75 845.103 1364.77 848.462L1333.94 874.419C1332.22 875.895 1330.09 876.67 1327.86 876.67ZM1296.63 829.086C1293.87 831.583 1293.54 835.79 1295.87 838.694L1322.38 871.602C1323.57 873.078 1325.27 874.001 1327.16 874.185C1329.06 874.37 1330.9 873.792 1332.35 872.574L1363.18 846.616C1366.13 844.131 1366.52 839.702 1364.04 836.738L1335.99 803.313C1334.76 801.837 1333.02 800.951 1331.1 800.828C1329.18 800.705 1327.33 801.332 1325.92 802.624L1296.63 829.086Z" fill="black"/>
<path d="M1183.04 818.961L1181.12 817.423L1194.94 800.09C1195.75 799.068 1195.47 797.998 1194.93 797.334C1194.39 796.67 1193.39 796.177 1192.22 796.768L1176.61 804.801C1174.57 805.847 1172.25 805.343 1170.83 803.559C1169.4 801.775 1169.45 799.401 1170.93 797.654L1184.81 781.255C1185.68 780.234 1185.39 779.139 1184.85 778.462C1184.3 777.786 1183.3 777.269 1182.12 777.897L1141.88 798.38L1140.76 796.19L1180.99 775.707C1183.01 774.637 1185.34 775.129 1186.77 776.912C1188.21 778.708 1188.17 781.083 1186.7 782.842L1172.81 799.241C1171.95 800.249 1172.22 801.344 1172.76 802.021C1173.3 802.698 1174.3 803.214 1175.48 802.611L1191.08 794.578C1193.08 793.545 1195.38 794.025 1196.81 795.759C1198.24 797.494 1198.25 799.856 1196.85 801.615L1183.04 818.961Z" fill="black"/>
<path d="M1250.02 844.469L1232.06 892.891L1234.37 893.746L1252.32 845.325L1250.02 844.469Z" fill="black"/>
<path d="M1278.19 854.988L1275.87 855.805L1296.58 914.651L1298.9 913.835L1278.19 854.988Z" fill="black"/>
<path d="M1277.33 895.726L1274.9 896.086L1279.17 925.015L1281.6 924.656L1277.33 895.726Z" fill="black"/>
<path d="M1249.65 884.573L1245.23 907.751L1247.64 908.212L1252.07 885.034L1249.65 884.573Z" fill="black"/>
<path d="M1052.74 419.934L1050.57 421.107L1072.9 462.237L1075.06 461.064L1052.74 419.934Z" fill="black"/>
<path d="M1052.88 441.791L1050.51 442.471L1057.41 466.449L1059.77 465.769L1052.88 441.791Z" fill="black"/>
<path d="M1041.75 423.833L1039.62 459.866L1042.07 460.012L1044.21 423.979L1041.75 423.833Z" fill="black"/>
<path d="M976.725 437.805L974.351 437.166L980.674 413.521C981.068 412.032 982.408 411.11 983.946 411.27C985.472 411.43 986.591 412.623 986.677 414.148L987.379 428.308C987.403 428.702 987.674 428.825 987.846 428.862C988.018 428.899 988.313 428.911 988.498 428.554L997.626 410.544L999.816 411.651L990.7 429.661C990.06 430.916 988.719 431.556 987.342 431.261C985.964 430.965 985.004 429.834 984.93 428.431L984.229 414.271C984.205 413.829 983.885 413.73 983.7 413.718C983.516 413.693 983.184 413.73 983.073 414.148L976.725 437.805Z" fill="black"/>
<path d="M1229.64 313.994L1229.26 316.424L1265.26 322.163L1265.65 319.733L1229.64 313.994Z" fill="black"/>
<path d="M1232.12 325.015L1231.22 327.307L1265.03 340.509L1265.92 338.217L1232.12 325.015Z" fill="black"/>
<path d="M1232.59 334.516L1230.73 336.121L1254.63 363.9L1256.5 362.295L1232.59 334.516Z" fill="black"/>
<path d="M1195.96 994.094L1195.82 994.081L1125.48 986.036L1125.76 983.588L1196.03 991.621C1197.73 991.596 1198.65 990.428 1198.96 989.345C1199.27 988.25 1199.06 986.749 1197.56 985.863L1116.61 947.653C1114.09 946.152 1113.14 943.335 1114.2 940.727C1115.26 938.119 1117.92 936.754 1120.65 937.418L1184.85 951.701C1186.7 952.143 1187.91 951.061 1188.41 949.991C1188.89 948.945 1188.94 947.358 1187.51 946.251L1133.72 919.666L1134.82 917.464L1188.89 944.209C1191.42 946.066 1191.59 948.97 1190.65 951.024C1189.7 953.078 1187.37 954.825 1184.31 954.1L1120.11 939.817C1118.17 939.349 1116.96 940.518 1116.49 941.662C1116.02 942.794 1116.08 944.479 1117.77 945.488L1198.72 983.698C1201.03 985.076 1202.01 987.524 1201.34 990.009C1200.63 992.494 1198.53 994.094 1195.96 994.094Z" fill="black"/>
<path d="M590.132 761.965C589.874 761.965 589.615 761.953 589.357 761.916C587.819 761.694 586.454 760.821 585.605 759.517L579.159 749.638C577.547 747.178 578.224 743.832 580.672 742.196L589.271 736.426C591.731 734.777 595.077 735.429 596.738 737.865L602.705 746.6C604.267 748.888 603.849 751.963 601.745 753.76L593.638 760.673C592.654 761.522 591.411 761.965 590.132 761.965ZM592.285 737.988C591.719 737.988 591.153 738.148 590.649 738.48L582.049 744.25C580.721 745.148 580.352 746.956 581.225 748.31L587.672 758.188C588.139 758.902 588.877 759.369 589.714 759.492C590.563 759.615 591.399 759.369 592.039 758.816L600.146 751.902C601.29 750.918 601.524 749.245 600.663 748.002L594.696 739.268C594.155 738.431 593.22 737.988 592.285 737.988Z" fill="black"/>
<path d="M613.453 762.9L599.984 777.017L601.764 778.715L615.233 764.599L613.453 762.9Z" fill="black"/>
<path d="M609.35 775.839L605.76 783.095L607.965 784.186L611.555 776.931L609.35 775.839Z" fill="black"/>
<path d="M619.192 762.636L614.171 786.596L616.579 787.1L621.6 763.141L619.192 762.636Z" fill="black"/>
<path d="M647.201 781.981C647.139 781.981 647.09 781.981 647.029 781.981C645.392 781.907 644.002 780.862 643.486 779.312L641.296 772.693L643.633 771.918L645.823 778.537C646.118 779.41 646.893 779.521 647.127 779.521C647.361 779.521 648.148 779.496 648.517 778.647L650.645 773.665C651.162 772.459 652.232 771.598 653.524 771.365C654.816 771.131 656.12 771.537 657.03 772.472L663.464 779.066C664.03 779.644 664.719 779.582 665.187 779.324C665.654 779.066 666.085 778.512 665.9 777.725L662.911 764.93L665.31 764.377L668.299 777.171C668.705 778.893 667.93 780.628 666.38 781.477C664.817 782.326 662.948 782.043 661.705 780.776L655.271 774.182C654.927 773.825 654.447 773.677 653.979 773.776C653.5 773.862 653.106 774.182 652.921 774.625L650.793 779.607C650.166 781.071 648.776 781.981 647.201 781.981Z" fill="black"/>
<path d="M488.613 683.35L470.995 689.396L471.794 691.723L489.411 685.677L488.613 683.35Z" fill="black"/>
<path d="M483.739 691.193L474.268 699.082L475.842 700.973L485.314 693.084L483.739 691.193Z" fill="black"/>
<path d="M490.76 691.67L483.396 710.613L485.69 711.505L493.053 692.562L490.76 691.67Z" fill="black"/>
<path d="M424.767 636.472C424.496 636.472 424.213 636.447 423.943 636.386L421.814 635.918L422.343 633.52L424.472 633.987C424.865 634.073 425.271 633.987 425.591 633.766C425.923 633.532 426.133 633.187 426.182 632.781L426.403 631.059C426.551 629.964 427.154 628.98 428.064 628.353C428.974 627.725 430.118 627.528 431.189 627.787L435.421 628.833C435.876 628.943 436.343 628.833 436.688 628.525C437.044 628.217 437.217 627.775 437.18 627.307L436.971 624.945C436.86 623.69 437.34 622.485 438.287 621.66C439.234 620.836 440.489 620.516 441.719 620.812L444.487 621.464C444.942 621.574 445.398 621.451 445.754 621.144C446.099 620.836 446.283 620.393 446.234 619.926C446.099 618.573 446.665 617.281 447.747 616.457C448.83 615.632 450.232 615.436 451.499 615.928L454.673 617.146L453.788 619.446L450.614 618.228C450.146 618.044 449.642 618.117 449.236 618.425C448.83 618.733 448.633 619.2 448.682 619.704C448.805 620.971 448.325 622.165 447.378 623.001C446.431 623.838 445.164 624.158 443.934 623.862L441.166 623.21C440.711 623.112 440.255 623.223 439.899 623.518C439.554 623.826 439.37 624.256 439.419 624.724L439.628 627.086C439.739 628.34 439.247 629.571 438.287 630.383C437.327 631.194 436.036 631.514 434.818 631.207L430.586 630.161C430.192 630.063 429.786 630.137 429.442 630.37C429.097 630.604 428.888 630.948 428.827 631.367L428.605 633.089C428.458 634.159 427.879 635.131 426.981 635.759C426.342 636.226 425.567 636.472 424.767 636.472Z" fill="black"/>
<path d="M1227.88 235.301C1227.85 235.301 1227.82 235.301 1227.79 235.301C1226.53 235.264 1225.45 234.526 1224.96 233.381L1222.96 228.756C1222.79 228.362 1222.45 228.313 1222.3 228.313C1222.3 228.313 1222.3 228.313 1222.29 228.313C1222.14 228.313 1221.78 228.362 1221.62 228.768L1219.4 234.329L1217.11 233.418L1219.33 227.858C1219.81 226.652 1220.96 225.877 1222.25 225.853C1222.26 225.853 1222.27 225.853 1222.29 225.853C1223.57 225.853 1224.71 226.603 1225.21 227.772L1227.21 232.397C1227.37 232.779 1227.71 232.828 1227.86 232.84C1227.99 232.84 1228.34 232.816 1228.52 232.434L1229.96 229.556C1230.44 228.596 1231.37 227.944 1232.42 227.821C1233.49 227.686 1234.54 228.092 1235.23 228.916L1237.6 231.684C1237.86 231.979 1238.18 231.942 1238.3 231.918C1238.43 231.893 1238.73 231.795 1238.85 231.413L1240.28 226.603C1240.6 225.545 1241.43 224.733 1242.51 224.438C1243.58 224.143 1244.71 224.426 1245.51 225.188L1250.16 229.543C1250.43 229.802 1250.75 229.752 1250.88 229.703C1251 229.666 1251.28 229.543 1251.37 229.174L1252.28 225.237C1252.54 224.143 1253.31 223.281 1254.38 222.925C1255.45 222.568 1256.6 222.802 1257.45 223.528L1260.78 226.369C1261.08 226.615 1261.38 226.542 1261.51 226.492C1261.63 226.443 1261.91 226.308 1261.97 225.926L1262.6 222.027C1262.79 220.87 1263.6 219.911 1264.7 219.529C1265.82 219.148 1267.04 219.406 1267.9 220.206C1268.22 220.501 1268.55 220.39 1268.69 220.341C1268.83 220.28 1269.12 220.108 1269.12 219.677V216.872H1271.58V219.677C1271.58 220.969 1270.86 222.076 1269.67 222.593C1268.49 223.109 1267.18 222.888 1266.23 222.014C1265.95 221.744 1265.63 221.818 1265.5 221.867C1265.38 221.904 1265.09 222.051 1265.02 222.433L1264.4 226.332C1264.21 227.476 1263.45 228.411 1262.35 228.817C1261.26 229.223 1260.08 229.014 1259.19 228.251L1255.86 225.41C1255.58 225.176 1255.28 225.237 1255.16 225.274C1255.05 225.311 1254.76 225.447 1254.68 225.803L1253.77 229.74C1253.51 230.86 1252.7 231.733 1251.59 232.077C1250.48 232.41 1249.33 232.139 1248.48 231.352L1243.83 226.997C1243.56 226.751 1243.26 226.8 1243.14 226.824C1243.02 226.861 1242.73 226.972 1242.63 227.317L1241.19 232.127C1240.86 233.246 1239.94 234.083 1238.81 234.329C1237.66 234.575 1236.48 234.169 1235.73 233.283L1233.36 230.515C1233.12 230.244 1232.84 230.257 1232.72 230.269C1232.61 230.281 1232.31 230.355 1232.15 230.663L1230.71 233.541C1230.18 234.624 1229.1 235.301 1227.88 235.301Z" fill="black"/>
<path d="M1224.28 216.598L1223.04 218.724L1234.78 225.572L1236.02 223.447L1224.28 216.598Z" fill="black"/>
<path d="M1235.34 212.073L1234.14 214.224L1249.4 222.701L1250.6 220.55L1235.34 212.073Z" fill="black"/>
<path d="M1249.29 210.561L1248.24 212.784L1260.8 218.742L1261.85 216.519L1249.29 210.561Z" fill="black"/>
<path d="M1122.29 1169.84L1120.03 1168.88L1123.8 1160.02C1124.71 1157.88 1126.5 1156.3 1128.74 1155.66C1130.98 1155.02 1133.34 1155.42 1135.25 1156.76L1139.16 1159.52C1140.53 1160.48 1142.21 1160.74 1143.8 1160.2C1145.39 1159.67 1146.58 1158.45 1147.1 1156.86L1147.77 1154.76C1148.54 1152.36 1150.44 1150.5 1152.84 1149.78C1155.24 1149.05 1157.86 1149.55 1159.82 1151.12L1163.79 1154.28C1165.16 1155.36 1166.89 1155.69 1168.55 1155.18C1170.21 1154.67 1171.47 1153.42 1171.98 1151.76L1173 1148.47C1173.75 1146.06 1175.56 1144.23 1177.97 1143.47C1180.39 1142.69 1182.92 1143.13 1184.94 1144.66L1189.5 1148.12C1190.88 1149.16 1192.61 1149.46 1194.26 1148.91C1195.91 1148.37 1197.13 1147.11 1197.62 1145.45L1199.33 1139.63C1200.08 1137.08 1202.05 1135.14 1204.61 1134.41C1207.15 1133.7 1209.86 1134.34 1211.83 1136.12L1215.5 1139.45C1216.86 1140.7 1218.74 1141.13 1220.51 1140.57C1222.29 1140.03 1223.6 1138.63 1224.05 1136.83C1224.7 1134.15 1226.67 1132.07 1229.32 1131.3C1231.97 1130.52 1234.75 1131.19 1236.75 1133.09L1242.46 1138.52L1240.76 1140.3L1235.06 1134.88C1233.69 1133.59 1231.81 1133.13 1230.01 1133.66C1228.22 1134.19 1226.87 1135.59 1226.43 1137.42C1225.79 1140.08 1223.85 1142.14 1221.24 1142.94C1218.63 1143.74 1215.86 1143.12 1213.85 1141.28L1210.18 1137.94C1208.85 1136.72 1207.02 1136.29 1205.28 1136.79C1203.55 1137.28 1202.21 1138.59 1201.7 1140.32L1199.99 1146.13C1199.28 1148.55 1197.44 1150.45 1195.05 1151.24C1192.65 1152.03 1190.03 1151.58 1188.02 1150.07L1183.46 1146.61C1182.1 1145.58 1180.37 1145.29 1178.74 1145.8C1177.1 1146.32 1175.87 1147.56 1175.37 1149.2L1174.34 1152.48C1173.59 1154.89 1171.7 1156.78 1169.29 1157.53C1166.88 1158.26 1164.26 1157.77 1162.28 1156.2L1158.3 1153.04C1156.95 1151.95 1155.23 1151.62 1153.57 1152.13C1151.91 1152.63 1150.65 1153.86 1150.12 1155.51L1149.45 1157.61C1148.7 1159.96 1146.92 1161.75 1144.59 1162.53C1142.25 1163.32 1139.76 1162.95 1137.75 1161.52L1133.83 1158.77C1132.54 1157.86 1130.94 1157.59 1129.42 1158.02C1127.9 1158.45 1126.67 1159.53 1126.06 1160.98L1122.29 1169.84Z" fill="black"/>
<path d="M1041.9 1108.88H1039.44V1097.09C1039.44 1095.46 1038.6 1094.01 1037.21 1093.19C1035.82 1092.36 1034.14 1092.34 1032.72 1093.11L1027.52 1095.98C1025.33 1097.18 1022.73 1097.15 1020.59 1095.87C1018.44 1094.6 1017.16 1092.35 1017.16 1089.85V1085.79C1017.16 1084.25 1016.42 1082.88 1015.14 1082.02C1013.86 1081.15 1012.3 1081.01 1010.89 1081.61L1004.21 1084.4C1002.04 1085.31 999.582 1085.08 997.638 1083.78C995.682 1082.47 994.513 1080.29 994.513 1077.96V1076.62C994.513 1075.08 993.787 1073.71 992.508 1072.85C991.229 1071.99 989.679 1071.83 988.264 1072.42L981.867 1075.04C979.702 1075.93 977.253 1075.68 975.322 1074.38C973.378 1073.07 972.222 1070.91 972.222 1068.57C972.222 1067.02 971.484 1065.64 970.192 1064.79C968.9 1063.93 967.338 1063.8 965.923 1064.4L960.953 1066.5C959.034 1067.31 956.881 1067.23 955.036 1066.28C953.191 1065.33 951.862 1063.64 951.407 1061.61L950.767 1058.8C950.46 1057.47 949.598 1056.37 948.393 1055.76C947.175 1055.15 945.772 1055.11 944.53 1055.66L935.697 1059.54L934.713 1057.29L943.546 1053.41C945.465 1052.58 947.642 1052.63 949.512 1053.57C951.382 1054.52 952.723 1056.23 953.191 1058.27L953.83 1061.08C954.126 1062.39 954.987 1063.49 956.18 1064.1C957.373 1064.72 958.776 1064.77 960.018 1064.25L964.988 1062.15C967.153 1061.23 969.614 1061.46 971.582 1062.76C973.538 1064.07 974.707 1066.24 974.707 1068.59C974.707 1070.13 975.433 1071.5 976.712 1072.36C977.992 1073.22 979.529 1073.37 980.956 1072.79L987.353 1070.17C989.519 1069.28 991.967 1069.53 993.898 1070.83C995.842 1072.14 996.998 1074.3 996.998 1076.64V1077.98C996.998 1079.52 997.736 1080.9 999.016 1081.76C1000.3 1082.62 1001.86 1082.77 1003.27 1082.16L1009.95 1079.37C1012.12 1078.47 1014.58 1078.71 1016.52 1080C1018.48 1081.3 1019.63 1083.48 1019.63 1085.82V1089.88C1019.63 1091.5 1020.47 1092.95 1021.86 1093.78C1023.25 1094.6 1024.94 1094.63 1026.35 1093.85L1031.55 1090.98C1033.74 1089.78 1036.34 1089.82 1038.48 1091.09C1040.63 1092.36 1041.91 1094.61 1041.91 1097.11V1108.88H1041.9Z" fill="black"/>
<path d="M1318.54 731.727C1307.17 750.18 1276.91 759.849 1262.17 740.018C1245.8 717.973 1257.47 671.09 1291.55 669.121C1299.32 668.666 1307.07 671.213 1313.2 676.281C1328.75 689.161 1331.28 711.035 1318.54 731.727Z" fill="black"/>
<path d="M1279.68 707.295C1275.49 720.224 1270.7 734.519 1264.68 727.187C1260.94 722.623 1258.66 711.65 1261.33 701.217C1263.44 693 1269.32 685.114 1275.16 680.981C1278.19 678.84 1281.25 678.348 1283.7 679.652C1289.95 682.961 1284.36 692.791 1279.68 707.295Z" fill="#74BAAB"/>
<path d="M1043.43 348.185C1037.12 354.939 1030.02 362.332 1027.1 354.631C1025.29 349.846 1026.14 341.419 1030.69 335.649C1034.27 331.097 1040.7 328.514 1046.19 328.428C1049.05 328.391 1051.52 329.473 1053.12 331.479C1057.16 336.584 1050.5 340.607 1043.43 348.185Z" fill="#74BAAB"/>
<path d="M631.097 719.056C631.183 714.639 631.355 709.743 634.739 711.539C636.842 712.659 640.89 721.529 636.252 726.954C635.378 727.975 634.087 728.295 632.918 728.086C629.953 727.569 630.999 724.001 631.097 719.056Z" fill="#74BAAB"/>
<path d="M719.611 833.822C720.14 832.677 719.193 831.558 716.831 830.685C712.119 828.95 702.954 827.707 685.177 828.938C668.791 830.069 660.561 833.526 656.44 836.491C654.238 838.078 654.41 839.271 656.427 840.169C681.204 844.377 706.632 841.08 719.611 833.822Z" fill="black"/>
<path d="M1150.26 728.467C1148.2 719.302 1142.56 691.143 1142.5 690.86L1144.91 690.38C1144.97 690.663 1150.6 718.785 1152.66 727.926L1150.26 728.467Z" fill="black"/>
<path d="M1175.19 731.456C1172.66 727.778 1170.45 722.882 1169.12 718.035C1168.65 716.337 1168.22 714.688 1167.81 713.101C1165.73 705.142 1164.1 698.843 1160.12 695.214L1161.78 693.394C1166.3 697.515 1168.02 704.121 1170.2 712.474C1170.61 714.049 1171.04 715.685 1171.5 717.37C1172.77 721.971 1174.85 726.597 1177.24 730.054L1175.19 731.456Z" fill="black"/>
<path d="M1186.87 732.022L1184.41 731.948C1184.47 730.017 1184.28 727.495 1184.1 724.825C1183.92 722.082 1183.69 718.982 1183.69 715.98C1183.69 710.506 1185.05 705.167 1187.31 701.673L1189.38 703.014C1187.36 706.126 1186.15 710.961 1186.15 715.98C1186.15 718.883 1186.35 721.824 1186.55 724.653C1186.75 727.384 1186.93 729.968 1186.87 732.022Z" fill="black"/>
<path d="M1266.57 829.873C1263.97 829.873 1261.39 828.778 1259.59 826.675L1239.1 802.735L1240.97 801.135L1261.46 825.075C1263.83 827.856 1268.05 828.225 1270.87 825.887L1331.89 770.319C1335.23 767.452 1339 765.054 1343.09 763.184L1344.11 765.423C1340.23 767.194 1336.66 769.47 1333.51 772.164L1272.48 827.745C1270.76 829.172 1268.65 829.873 1266.57 829.873Z" fill="black"/>
<path d="M1270.63 936.888C1260.12 936.888 1249.03 932.349 1239.46 920.219L1215.89 894.126L1217.71 892.478L1241.34 918.632C1258.64 940.542 1281.09 936.199 1295.05 925.853C1306.22 917.574 1321.77 904.337 1341.27 886.499L1342.93 888.32C1323.37 906.207 1307.75 919.506 1296.52 927.834C1289.41 933.087 1280.25 936.888 1270.63 936.888Z" fill="black"/>
<path d="M1117.46 735.799C1116.09 733.4 1114.96 731.001 1113.79 727.999L1116.09 727.113C1117.23 730.029 1118.27 732.268 1119.6 734.581L1117.46 735.799Z" fill="black"/>
<path d="M1131.95 731.493C1129.96 727.765 1126.22 720.04 1123.56 710.223L1125.94 709.583C1128.52 719.166 1132.17 726.695 1134.12 730.324L1131.95 731.493Z" fill="black"/>
<path d="M1301.76 767.612C1281.86 767.612 1263.61 756.75 1254.11 739.256L1256.28 738.075C1265.34 754.769 1282.78 765.152 1301.76 765.152V767.612Z" fill="black"/>
<path d="M968.249 397.393C966.293 397.393 963.894 396.335 961.347 394.293C958.542 392.054 954.2 388.548 950.645 385.694L952.195 383.775C955.75 386.641 960.08 390.135 962.885 392.374C965.505 394.477 968.052 395.412 969.221 394.699C970.279 394.059 970.525 391.882 969.922 388.708C969.196 384.919 969.381 381.88 970.488 379.653L972.69 380.748C972.099 381.942 971.558 384.205 972.333 388.24C973.182 392.669 972.567 395.548 970.488 396.802C969.836 397.196 969.073 397.393 968.249 397.393Z" fill="black"/>
<path d="M1058.27 410.827L1056.52 409.104L1089.46 375.372C1101.02 363.525 1119.77 362.885 1132.12 373.908L1130.49 375.741C1119.12 365.592 1101.87 366.182 1091.23 377.082L1058.27 410.827Z" fill="black"/>
<path d="M1131.68 416.998L1098.25 450.586L1100 452.322L1133.42 418.733L1131.68 416.998Z" fill="black"/>
<path d="M602.655 736.045L595.151 724.936C592.506 721.442 588.582 719.166 584.165 718.588C579.749 718.022 575.382 719.216 571.876 721.959L570.362 720.028C574.397 716.866 579.404 715.488 584.485 716.152C589.566 716.817 594.056 719.425 597.156 723.509L604.697 734.667L602.655 736.045Z" fill="black"/>
<path d="M643.731 795.577L642.273 824.229L644.731 824.354L646.188 795.702L643.731 795.577Z" fill="black"/>
<path d="M717.775 760.449L715.389 761.051L727.415 808.768L729.801 808.167L717.775 760.449Z" fill="black"/>
</svg>
